<?xml version="1.0" encoding="UTF-8"?>
<svg id="Layer_1" data-name="Layer 1" xmlns="http://www.w3.org/2000/svg" viewBox="0 0 230 42.28">
  <defs>
    <style>
      .cls-1 {
        fill: #fdfefe;
      }

      .cls-2 {
        fill: #3f3f3f;
      }

      .cls-3 {
        fill: #07b6d5;
      }
    </style>
  </defs>
  <path class="cls-1" d="m230,0c-.52,0-1.02,0-1.51,0-27.51,0-55.01,0-82.52,0-30.17,0-60.35,0-90.52,0-.32,0-.64,0-.96,0-.32,0-.32.01-.34.31-.01.11-.03.22-.05.33-.2.92-.42,1.83-.59,2.76-.13.67-.26,1.33-.39,2-.26,1.36-.55,2.72-.83,4.07-.19.94-.43,1.87-.58,2.82-.03.21-.18.41-.19.61-.01.6-.18,1.17-.32,1.75-.1.43-.15.86-.28,1.28-.08.29-.12.62-.18.93-.11.57-.29,1.14-.37,1.71-.08.62-.29,1.22-.37,1.83-.03.25-.17.47-.18.7-.04.48-.15.94-.23,1.4-.1.57-.27,1.13-.37,1.71-.08.5-.15,1.02-.34,1.49-.11.29-.05.58-.12.86-.14.53-.28,1.07-.35,1.6-.09.69-.33,1.35-.41,2.04-.03.31-.09.63-.19.93-.12.36-.18.74-.23,1.11-.07.43-.19.86-.26,1.29-.08.47-.2.92-.29,1.39-.04.25-.18.49-.19.74-.04.64-.2,1.25-.38,1.86-.11.39-.15.8-.23,1.2-.08.41-.17.83-.25,1.25-.09.49-.18.98-.35,1.46-.09.24-.19.53-.08.84.23-.11.45-.08.67-.08,57.94,0,115.89,0,173.83,0,.33,0,.67,0,1,0,.2,0,.29-.05.33-.27.18-1.12.45-2.23.67-3.34.16-.84.35-1.68.53-2.52.26-1.22.52-2.44.77-3.66.2-.95.37-1.91.57-2.86.26-1.2.51-2.41.75-3.62.29-1.48.61-2.96.89-4.44.17-.87.36-1.74.55-2.6.26-1.16.47-2.33.74-3.49.23-.99.38-1.99.6-2.98.19-.89.35-1.79.57-2.68.18-.73.29-1.47.44-2.21.13-.65.28-1.31.41-1.96.16-.75.31-1.5.46-2.25.13-.67.27-1.34.4-2.01.08-.43.16-.86.25-1.31ZM0,42.15c.23.06.41.04.59.04,14.15,0,28.3,0,42.45,0,.17,0,.34,0,.5,0,.14,0,.19-.04.21-.19.07-.41.17-.81.25-1.22.21-1.04.38-2.08.62-3.12.18-.76.29-1.54.47-2.3.17-.71.26-1.44.44-2.14.21-.83.35-1.67.52-2.51.13-.66.28-1.32.4-1.98.22-1.24.53-2.47.79-3.7.21-1.02.4-2.05.61-3.07.23-1.12.44-2.24.69-3.35.22-.98.37-1.97.62-2.94.14-.53.2-1.09.31-1.63.09-.44.21-.89.29-1.33.33-1.84.77-3.65,1.12-5.49.2-1.08.42-2.15.67-3.22.11-.47.17-.95.28-1.42.2-.85.36-1.7.52-2.6-.54,0-1.05,0-1.55,0-3.87,0-7.73,0-11.6,0-9.73,0-19.46,0-29.18,0-.35,0-.7,0-1.05.01-.08,0-.17,0-.25.02-.09,0-.17.05-.15.16.06.4-.14.75-.2,1.13-.15.94-.37,1.87-.57,2.8-.16.78-.33,1.55-.49,2.33-.17.84-.34,1.68-.51,2.51-.13.64-.28,1.28-.42,1.93-.16.77-.31,1.53-.47,2.3-.12.58-.24,1.16-.36,1.74-.14.72-.28,1.43-.43,2.15-.13.66-.28,1.31-.41,1.97-.15.74-.29,1.49-.46,2.23-.14.59-.24,1.18-.38,1.77-.23.98-.39,1.97-.59,2.95-.19.9-.39,1.8-.57,2.7-.27,1.35-.54,2.7-.83,4.04-.05.25-.16.5-.18.75-.08.82-.32,1.62-.46,2.43-.1.6-.25,1.18-.37,1.77-.15.72-.28,1.43-.43,2.15-.15.76-.31,1.51-.47,2.29Z"/>
  <path class="cls-3" d="m230,0c-.09.45-.17.88-.25,1.31-.13.67-.26,1.34-.4,2.01-.15.75-.3,1.5-.46,2.25-.14.65-.28,1.31-.41,1.96-.15.74-.27,1.48-.44,2.21-.22.89-.37,1.79-.57,2.68-.21.99-.37,1.99-.6,2.98-.27,1.16-.48,2.33-.74,3.49-.19.87-.39,1.73-.55,2.6-.28,1.48-.6,2.96-.89,4.44-.24,1.21-.49,2.41-.75,3.62-.2.95-.38,1.91-.57,2.86-.25,1.22-.51,2.44-.77,3.66-.18.84-.37,1.68-.53,2.52-.21,1.12-.49,2.22-.67,3.34-.04.22-.13.27-.33.27-.33-.01-.67,0-1,0-57.94,0-115.89,0-173.83,0-.22,0-.45-.02-.67.08-.11-.3,0-.6.08-.84.17-.48.25-.97.35-1.46.08-.41.17-.83.25-1.25.08-.4.12-.81.23-1.2.17-.61.33-1.22.38-1.86.02-.25.15-.49.19-.74.08-.47.21-.93.29-1.39.07-.43.19-.86.26-1.29.06-.37.11-.75.23-1.11.1-.3.16-.62.19-.93.08-.69.32-1.35.41-2.04.07-.53.21-1.07.35-1.6.08-.28.01-.57.12-.86.18-.47.25-.98.34-1.49.1-.57.27-1.13.37-1.71.08-.47.2-.93.23-1.4.02-.23.15-.46.18-.7.08-.62.29-1.21.37-1.83.08-.57.25-1.14.37-1.71.06-.31.09-.64.18-.93.12-.42.18-.86.28-1.28.14-.57.3-1.15.32-1.75,0-.21.15-.4.19-.61.16-.95.39-1.88.58-2.82.28-1.36.58-2.71.83-4.07.13-.67.26-1.33.39-2,.17-.92.38-1.84.59-2.76.02-.11.04-.22.05-.33.03-.3.03-.31.34-.31.32,0,.64,0,.96,0,30.17,0,60.35,0,90.52,0,27.51,0,55.01,0,82.52,0,.5,0,1,0,1.51,0ZM79.43,5.53c-.09-.07-.17-.04-.25-.04-3.59,0-7.17,0-10.76,0-.83,0-1.64.11-2.4.4-.8.3-1.54.7-2.22,1.25-.56.47-1.05.99-1.48,1.57-.57.78-.82,1.69-.98,2.63-.16.92-.2,1.84.23,2.74.3.64.71,1.17,1.25,1.61.36.3.82.42,1.24.58.25.09.52.21.77.19.6-.05,1.19.03,1.79.02,2.07-.02,4.13,0,6.2,0,.22,0,.45,0,.67.02.57.06,1.28.56,1.32,1.13.09,1.02-.2,1.91-1.03,2.55-.48.37-1.06.51-1.68.51-3.34,0-6.67,0-10.01,0-.81,0-1.62,0-2.43,0-.35,0-.35,0-.43.35-.2.83-.39,1.67-.59,2.5q-.12.5.38.5c4,0,8.01-.01,12.01,0,1.2,0,2.32-.23,3.36-.81.31-.17.64-.3.93-.5.4-.27.74-.61,1.06-.97.47-.52.92-1.06,1.2-1.71.06-.15.21-.26.24-.42.09-.4.21-.78.31-1.17.22-.85.26-1.71-.07-2.56-.22-.58-.47-1.15-.98-1.56-.56-.45-1.12-.89-1.85-1.06-.52-.12-1.04-.21-1.57-.21-2.5,0-5,0-7.49,0-.91,0-1.49-.64-1.5-1.5,0-.3.08-.58.15-.86.21-.9.77-1.45,1.65-1.7.42-.12.85-.15,1.28-.15,3.52,0,7.03,0,10.55,0,.39,0,.39,0,.45-.37.04-.22.09-.44.14-.66.15-.62.31-1.24.46-1.86.04-.15.08-.29.05-.44Zm88.77-.04c-1.07,0-2.13,0-3.19,0-.12,0-.15.06-.18.18-.23,1.07-.48,2.13-.73,3.19-.3,1.3-.59,2.59-.88,3.89-.07.32-.08.32-.42.32-3.7,0-7.39,0-11.09,0-.14,0-.28.02-.44-.06.46-1.2.67-2.45.94-3.7.27-1.26.67-2.48.83-3.75-.03-.02-.04-.04-.05-.04-1.03-.05-2.06,0-3.09-.02-.13,0-.2.07-.22.2-.04.23-.08.47-.14.7-.26,1.11-.53,2.21-.79,3.32-.38,1.67-.74,3.34-1.13,5.01-.35,1.48-.69,2.96-1.03,4.43-.29,1.22-.58,2.45-.85,3.68-.07.3-.13.59-.23.88-.08.24-.03.31.21.31.96,0,1.93,0,2.89,0,.18,0,.27-.08.28-.23,0-.31.14-.58.2-.88.08-.39.15-.79.25-1.18.16-.63.33-1.26.43-1.89.09-.55.29-1.07.37-1.62.07-.47.18-.97.36-1.43.12-.32.09-.34.44-.34,3.66,0,7.31,0,10.97,0,.14,0,.28-.04.43.07-.19.81-.4,1.62-.57,2.44-.17.83-.38,1.65-.55,2.48-.17.84-.4,1.68-.59,2.48.07.08.12.08.18.08.98,0,1.95,0,2.93,0,.24,0,.3-.13.32-.29.03-.26.12-.51.17-.76.15-.77.35-1.52.53-2.28.51-2.18,1.01-4.37,1.51-6.55.13-.56.22-1.12.37-1.67.24-.88.41-1.78.61-2.67.13-.58.33-1.14.37-1.74.01-.2.18-.37.18-.59,0-.26.09-.49.16-.74.11-.39.25-.79.24-1.25Zm-77.04,9.37c-.08-.07-.15-.06-.22-.06-1.93,0-3.85-.02-5.78,0-.79.01-1.57.16-2.29.5-1.8.85-2.93,2.26-3.4,4.19-.29,1.21-.16,2.33.69,3.32.48.56,1.06.94,1.78,1.09.56.11,1.12.11,1.69.11,1.67,0,3.35,0,5.02,0,.24,0,.47,0,.71-.02.89-.04,1.72-.26,2.48-.73.47-.29.91-.62,1.31-1.01.5-.49.86-1.06,1.18-1.66.29-.54.42-1.16.57-1.75.3-1.16.57-2.32.82-3.49.19-.9.41-1.8.14-2.75-.26-.91-.79-1.57-1.6-2-.7-.37-1.44-.56-2.24-.56-2.21.01-4.41,0-6.62,0-.1,0-.2,0-.29,0-.13.01-.2.09-.23.21-.19.9-.33,1.8-.65,2.67-.06.18.03.27.23.28.08,0,.17,0,.25,0,2.14,0,4.27,0,6.41,0,.24,0,.47.01.71.06.55.11.9.54.87,1.1-.01.22-.04.45-.09.66-.19.86-.39,1.71-.59,2.57-.14.61-.27,1.22-.45,1.83-.17.56-.5.96-1.03,1.19-.32.14-.66.2-1.02.2-1.86,0-3.71,0-5.57,0-.14,0-.28,0-.42-.02-.54-.08-.91-.53-.9-1.05.02-.78.62-1.51,1.38-1.7.27-.07.55-.09.83-.09,1.77,0,3.54,0,5.32,0,.34,0,.34,0,.41-.32.1-.43.22-.87.31-1.3.11-.5.24-1,.28-1.49Zm46.33-4.81h0c-.85,0-1.7,0-2.55,0-.4,0-.81.02-1.21.11-1.09.25-2.07.71-2.94,1.43-.96.8-1.46,1.86-1.85,3.01-.11.34-.16.69-.24,1.03-.31,1.34-.62,2.69-.92,4.03-.13.59-.19,1.21,0,1.78.17.54.45,1.05.85,1.5.56.62,1.27.91,2.06,1.01.87.12,1.75.07,2.63.07,1.51,0,3.01,0,4.52-.02.95-.01,1.83-.31,2.62-.83.72-.47,1.37-1.02,1.86-1.73.22-.33.49-.63.63-1.01.19-.49.34-.99.46-1.51.15-.68.29-1.36.46-2.03.24-.99.5-1.97.59-2.99.07-.8-.08-1.59-.52-2.24-.48-.72-1.07-1.37-2.06-1.4-.51-.24-1.06-.2-1.6-.21-.93-.02-1.87,0-2.8,0Zm37.5,13.97s0-.01,0-.02c1.07,0,2.15.04,3.22,0,1.54-.07,2.84-.74,3.9-1.81.84-.84,1.39-1.87,1.65-3.05.29-1.28.6-2.54.88-3.82.14-.62.25-1.25.2-1.89-.09-1.19-.56-2.16-1.58-2.83-.14-.09-.29-.16-.45-.22-.63-.25-1.3-.3-1.97-.3-1.86-.01-3.71,0-5.57,0-.38,0-.76,0-1.12.09-1.07.23-2.06.65-2.91,1.38-.63.55-1.17,1.16-1.51,1.92-.21.47-.35.96-.47,1.46-.34,1.39-.67,2.79-.99,4.19-.12.53-.21,1.06-.21,1.61,0,1.24.97,2.65,2.27,3.05.6.18,1.2.25,1.82.26.93,0,1.87,0,2.8,0Zm15.07,0c1.35,0,2.71-.01,4.06,0,2.52.03,4.91-1.68,5.71-4,.25-.73.37-1.49.29-2.27-.1-.97-.43-1.82-1.28-2.42-.47-.33-.96-.54-1.52-.63-.48-.08-.97-.09-1.46-.09-1.53,0-3.07,0-4.6,0-.23,0-.46-.02-.57-.26-.09-.18,0-.53.17-.7.12-.12.28-.19.45-.2.17-.01.33-.02.5-.02,2.48,0,4.97,0,7.45,0,.48,0,.48,0,.61-.45.03-.09.05-.19.07-.28.18-.81.35-1.62.54-2.43.04-.17-.02-.23-.19-.23-.07,0-.14,0-.21,0-2.33,0-4.66,0-6.99,0-.68,0-1.35,0-2.02.2-.71.21-1.37.51-1.94.97-.92.74-1.58,1.67-1.82,2.86-.14.71-.18,1.4.11,2.08.43,1.02,1.23,1.55,2.28,1.72.54.09,1.08.09,1.63.09,1.33,0,2.65,0,3.98,0,.24,0,.47,0,.71.05.43.1.65.35.68.79.06.65-.33,1.58-1.28,1.77-.29.06-.57.09-.87.09-2.71,0-5.41,0-8.12,0-.13,0-.25,0-.38.01-.09.01-.19.05-.2.17-.08.81-.36,1.57-.5,2.36-.03.18-.1.35-.16.52-.07.21,0,.27.21.28.08,0,.17,0,.25,0,1.46,0,2.93,0,4.39,0Zm-88.92,0c1.26,0,2.51,0,3.77,0,.92,0,1.8-.1,2.67-.5.76-.35,1.43-.82,2.01-1.39.43-.42.77-.94,1.08-1.46.22-.37.3-.8.41-1.2.26-.97.22-1.93-.16-2.89-.37-.94-1.1-1.46-1.99-1.76-.59-.2-1.22-.21-1.85-.21-1.56.02-3.13.01-4.69,0-.54,0-.7-.19-.6-.69.05-.26.26-.38.5-.44.19-.05.39-.04.58-.04,1.98,0,3.96,0,5.95,0,.56,0,1.12,0,1.67,0,.36,0,.36,0,.44-.34.15-.62.29-1.25.43-1.87.07-.34.14-.68.2-1.01.02-.1,0-.16-.12-.17-.07,0-.14,0-.21,0-2.54,0-5.08,0-7.62,0-1.09,0-2.1.27-2.99.89-1.52,1.04-2.37,2.46-2.29,4.34.06,1.35,1.07,2.42,2.44,2.61.48.07.97.09,1.46.09,1.31,0,2.62,0,3.94,0,.32,0,.63,0,.95.08.43.1.64.29.69.71.07.73-.37,1.67-1.31,1.82-.25.04-.49.09-.75.08-.71,0-1.42,0-2.14,0-2.04,0-4.07,0-6.11,0-.46,0-.44,0-.55.46-.22.89-.36,1.79-.66,2.66-.06.16,0,.24.17.23.1,0,.2,0,.29,0,1.47,0,2.93,0,4.4,0Zm103.4-.05s.09.04.13.04c1.02,0,2.04,0,3.06,0,.18,0,.22-.08.25-.24.36-1.59.73-3.18,1.1-4.77.4-1.73.82-3.46,1.21-5.19.08-.36.11-.38.45-.38,1.7,0,3.41,0,5.11,0,.39,0,.4,0,.49-.39.17-.73.34-1.46.49-2.2.05-.26.13-.53.04-.82-1.85,0-3.71,0-5.56,0-.05,0-.11-.02-.16-.03-.01,0-.03-.01-.04-.02,0,0-.01-.02-.01-.03.42-1.46.73-2.96,1.07-4.46-.12,0-.19-.01-.26-.01-.85,0-1.7,0-2.55,0-.55,0-.55,0-.67.55-.28,1.23-.56,2.45-.84,3.67-.08.33-.08.33-.4.33-1.2,0-2.4,0-3.6,0-.39,0-.45.04-.53.42-.11.49-.22.98-.33,1.47-.1.42-.19.84-.3,1.26-.05.19,0,.26.2.25.1,0,.2,0,.29,0,1.06,0,2.12,0,3.18,0,.65,0,.65,0,.51.63-.68,2.97-1.37,5.95-2.06,8.92-.07.32-.21.63-.24.97Zm-88.9,0s.07.03.09.03c1.02,0,2.04,0,3.06.01.21,0,.27-.1.3-.26.09-.41.19-.81.28-1.22.39-1.77.82-3.53,1.21-5.3.26-1.19.58-2.37.8-3.58.03-.15.1-.22.25-.22.1,0,.2,0,.29,0,1.7,0,3.4,0,5.11,0,.31,0,.31,0,.38-.31.2-.9.38-1.8.59-2.69.09-.38.13-.4-.3-.4-.06,0-.11,0-.17,0-1.6,0-3.21,0-4.81,0-.17,0-.34.03-.5-.05.34-1.48.75-2.95,1.02-4.44-.09-.08-.18-.07-.26-.07-.81,0-1.62,0-2.43,0-.71,0-.72,0-.84.7-.21,1.21-.55,2.4-.79,3.61-.04.2-.14.27-.35.26-.5-.02-1,0-1.51-.01-.77,0-1.53,0-2.3,0-.15,0-.3-.03-.34.2-.18,1-.42,1.98-.68,2.96-.04.16-.01.24.17.24.21,0,.42,0,.63,0,1.07,0,2.15,0,3.22,0,.3,0,.32.02.25.31-.06.26-.12.51-.18.77-.34,1.49-.69,2.98-1.04,4.47-.38,1.65-.76,3.31-1.15,4.99Zm-29.56,8.57h0c-7.26,0-14.51,0-21.77,0-.38,0-.75,0-1.13,0-.3,0-.31,0-.31.29,0,.67-.04.56.55.56,15.07,0,30.14,0,45.21,0,.07,0,.14,0,.21,0,.37,0,.37,0,.36-.38-.02-.56.04-.47-.47-.47-7.55,0-15.1,0-22.65,0Zm103.37.85c7.53,0,15.07,0,22.6,0,.64,0,.63,0,.59-.65-.01-.17-.08-.22-.23-.21-.07,0-.14,0-.21,0-3.7,0-7.39,0-11.09,0-11.47,0-22.94,0-34.4,0-.38,0-.37-.04-.38.35,0,.57-.06.5.47.5,7.55,0,15.09,0,22.64,0Zm-26.71-2.06c-.19-.16-.41-.19-.58-.31-.5-.35-1.03-.22-1.49-.02-.61.26-.97.8-1.11,1.47-.08.36-.06.71,0,1.08.08.54.37.99.78,1.26.63.42,1.35.51,2.05.07.12-.08.22-.2.39-.19.04.57-.2.93-.72,1.09-.28.09-.58.08-.86-.01-.22-.07-.45-.14-.67-.18-.23-.05-.44.11-.47.34-.04.28,0,.37.31.51.62.28,1.28.34,1.94.17.57-.15,1.04-.43,1.26-1.04.11-.31.18-.61.18-.93,0-.71,0-1.42,0-2.13,0-.4.02-.8-.07-1.2-.05-.21-.23-.45-.41-.47-.19-.02-.33.09-.44.36-.02.04-.04.07-.08.14Zm-37.69.06c0-.51,0-.94,0-1.36,0-.15,0-.31-.07-.45-.15-.3-.4-.36-.68-.17-.18.12-.19.3-.19.48-.03,1.65.03,3.31-.03,4.96,0,.12.07.21.17.26.22.12.6.04.7-.18.1-.23.2-.23.37-.1.56.44,1.17.41,1.79.14.48-.21.76-.59.94-1.1.31-.83.21-1.58-.27-2.3-.34-.51-1.24-.95-1.91-.7-.28.1-.53.26-.82.52Zm-9.47,1.92c-.09-.4-.29-.74-.41-1.12-.06-.19-.12-.39-.29-.53-.2-.17-.37-.16-.56.02-.15.15-.25.32-.31.51-.1.31-.23.61-.33.92-.03.08-.06.12-.14.13-.09,0-.11-.06-.14-.13-.05-.13-.1-.26-.15-.39-.19-.5-.34-1.01-.59-1.49-.09-.16-.2-.29-.4-.29-.34,0-.52.27-.41.64.04.16.11.31.17.47.13.36.14.76.35,1.08.17.26.21.55.31.83.11.33.23.67.47.94.26.29.59.24.78-.1.08-.14.11-.29.15-.43.15-.48.28-.97.52-1.5.1.3.17.52.25.74.15.4.23.82.4,1.22.08.2.22.26.42.26.33,0,.44-.08.56-.4.1-.27.2-.53.3-.8.27-.74.55-1.48.82-2.22.09-.26-.07-.62-.3-.69-.25-.08-.45.02-.59.33-.18.4-.33.8-.51,1.2-.12.27-.12.58-.37.82Zm17.96-1.85c0-.34,0-.58,0-.83,0-.31,0-.61-.03-.92-.02-.25-.22-.42-.44-.42-.27,0-.42.13-.46.42-.02.12-.02.25-.02.38,0,1.39,0,2.79,0,4.18,0,.15,0,.31.01.46.02.27.36.44.58.28.21-.15.37-.32.35-.62-.02-.32,0-.64,0-.96,0-.4.01-.81.08-1.21.03-.2.15-.34.32-.4.15-.06.32-.09.47-.12.33-.07.68.13.72.4.06.42.16.84.14,1.27-.02.4-.01.81,0,1.21,0,.27.2.47.43.48.22,0,.41-.14.47-.4.02-.09.02-.19.02-.29,0-.42,0-.84,0-1.25,0-.42,0-.84-.08-1.25-.11-.59-.51-1-1.09-1.05-.56-.05-1.04.13-1.5.63Zm-12.62,1.85h0c.36,0,.73,0,1.09,0,.5-.02.66-.23.61-.73-.04-.35-.22-.64-.41-.9-.43-.56-1-.91-1.73-.84-.85.07-1.65.74-1.78,1.6-.11.69-.09,1.34.36,1.92.19.25.39.49.69.62.64.28,1.3.22,1.94.02.2-.06.38-.17.53-.32.13-.13.16-.29.09-.46-.06-.16-.21-.16-.35-.16-.19,0-.35.07-.51.14-.44.2-.87.16-1.29-.06-.23-.12-.4-.3-.5-.54-.08-.2-.03-.28.19-.28.36,0,.73,0,1.09,0Zm18.71,1.84c1.32.12,2.32-.93,2.33-1.98.02-1.32-.8-2.3-2.05-2.33-1.11-.03-2.15.64-2.24,2-.08,1.21.81,2.37,1.95,2.32Zm15.64-3.72c-.04-.1-.06-.17-.1-.24-.2-.36-.37-.37-.66-.08-.14.14-.15.29-.15.45,0,.93,0,1.87,0,2.8,0,.12.01.25.04.37.03.18.13.3.32.34.19.03.39-.07.49-.25.08-.14.09-.29.09-.45,0-.46,0-.92,0-1.38,0-.21.02-.42.07-.62.1-.43.41-.71,1-.69.39.02.63.28.69.75.07.6.05,1.2.04,1.8,0,.15,0,.3.02.46.05.28.16.38.43.37.3,0,.48-.17.48-.55,0-.85.08-1.7-.08-2.54-.07-.34-.15-.74-.49-.93-.68-.37-1.23-.28-1.79.11-.12.09-.22.21-.4.28Zm-10.3-.62c-.57.04-1.09.13-1.46.57-.25.29-.3,1.08-.05,1.29.24.21.47.44.8.52.31.08.58.26.9.31.15.02.28.13.36.27.15.26.04.57-.25.62-.42.06-.84.05-1.19-.24-.1-.08-.19-.16-.3-.22-.17-.09-.46-.05-.55.06-.09.1-.08.38,0,.51.33.52.9.61,1.42.69.33.05.71-.05,1.05-.2.48-.2.74-.61.76-1.15.01-.42-.45-.92-.81-1.02-.28-.08-.54-.19-.82-.26-.16-.04-.27-.13-.4-.21-.18-.11-.2-.29-.17-.48.03-.21.21-.23.37-.27.14-.03.28,0,.41.04.23.07.46.16.67.29.26.16.48.1.61-.12.08-.12.01-.36-.17-.51-.34-.29-.76-.42-1.16-.48Zm4.29,4.26c.22,0,.44,0,.65-.11.26-.13.33-.26.26-.49-.06-.21-.15-.25-.46-.22-.38.03-.43,0-.44-.4,0-.56,0-1.11,0-1.67,0-.35-.03-.4.4-.38.06,0,.11,0,.17,0,.14-.02.4-.28.4-.42,0-.2-.13-.28-.29-.35-.15-.07-.3-.07-.45-.06-.16,0-.23-.06-.22-.22.02-.2-.04-.39-.16-.55-.19-.25-.53-.22-.69.05-.06.11-.09.23-.1.36-.02.31-.02.3-.33.37-.18.04-.39.06-.42.32-.04.33.07.48.43.52.32.03.33.03.33.37,0,.24,0,.47,0,.71,0,.43-.03.87.02,1.29.05.53.3.93.92.9Zm3.44-2.09h0c0-.39,0-.78,0-1.17,0-.15,0-.31-.01-.46-.03-.22-.3-.44-.5-.43-.19,0-.36.17-.4.4-.02.14-.03.28-.03.42,0,.79,0,1.59,0,2.38,0,.18,0,.36.01.54.03.27.12.37.34.39.31.03.42-.03.52-.29.06-.13.06-.27.06-.41,0-.46,0-.92,0-1.38Zm-.94-3.09c0,.37.08.43.48.43.36,0,.48-.13.47-.47,0-.32-.12-.42-.48-.41-.37,0-.48.11-.48.45Z"/>
  <path class="cls-2" d="m0,42.15c.16-.78.31-1.54.47-2.29.14-.72.28-1.43.43-2.15.12-.59.27-1.18.37-1.77.14-.81.38-1.61.46-2.43.03-.25.13-.5.18-.75.29-1.35.55-2.7.83-4.04.18-.9.38-1.8.57-2.7.21-.98.37-1.98.59-2.95.14-.59.24-1.18.38-1.77.17-.74.31-1.49.46-2.23.14-.66.28-1.31.41-1.97.15-.72.28-1.43.43-2.15.12-.58.24-1.16.36-1.74.16-.77.31-1.54.47-2.3.13-.64.28-1.28.42-1.93.17-.84.34-1.68.51-2.51.16-.78.33-1.55.49-2.33.19-.93.42-1.86.57-2.8.06-.38.26-.73.2-1.13-.02-.11.06-.15.15-.16.08,0,.17-.01.25-.02.35,0,.7-.01,1.05-.01,9.73,0,19.46,0,29.18,0,3.87,0,7.73,0,11.6,0,.5,0,1,0,1.55,0-.16.89-.32,1.75-.52,2.6-.11.46-.17.95-.28,1.42-.25,1.07-.47,2.15-.67,3.22-.35,1.84-.79,3.65-1.12,5.49-.08.44-.2.89-.29,1.33-.11.54-.18,1.09-.31,1.63-.25.97-.4,1.96-.62,2.94-.25,1.11-.47,2.23-.69,3.35-.21,1.02-.4,2.05-.61,3.07-.26,1.23-.57,2.46-.79,3.7-.12.66-.26,1.32-.4,1.98-.17.83-.31,1.68-.52,2.51-.18.71-.28,1.43-.44,2.14-.18.76-.29,1.53-.47,2.3-.24,1.03-.42,2.08-.62,3.12-.08.41-.18.81-.25,1.22-.02.14-.08.19-.21.19-.17,0-.33,0-.5,0-14.15,0-28.3,0-42.45,0-.18,0-.36.03-.59-.04ZM25.93,4.37c-5.01-.13-9.42,4.1-9.39,9.36.01,2.54.89,4.75,2.67,6.55,1.81,1.83,4.01,2.84,6.61,2.85,5.1.03,9.52-3.99,9.52-9.39,0-5.07-4.02-9.43-9.41-9.37Zm4.71,21.95c-.26-.29-.36-.57-.57-.78-.59-.6-1.31-.85-2.13-.85-3.25,0-6.5,0-9.75,0-.45,0-.89.06-1.32.18-.79.22-1.49.62-2.09,1.18-.49.45-.97.93-1.44,1.4-.22.22-.37.47-.33.81.07.57.55.88,1.1.71.2-.06.34-.19.48-.32.53-.52,1.02-1.07,1.61-1.53.33-.26.69-.49,1.1-.57.51-.1,1.03-.18,1.56-.18,2.9,0,5.8,0,8.71,0,.18,0,.37,0,.54.04.23.06.49.08.67.28.53.55.35,1.39-.36,1.68-.31.13-.62.13-.94.13-1.63,0-3.27,0-4.9,0-.11,0-.22,0-.33,0-.59.03-.88.77-.66,1.19.21.39.51.51.92.51,1.45,0,2.9,0,4.35-.01.45,0,.89.01,1.34-.01.72-.04,1.33-.33,1.84-.85,1.45-1.47,2.91-2.93,4.36-4.4.45-.46.91-.91,1.37-1.36.3-.29.62-.45,1.07-.34.5.13.79.44.82.94.02.43-.25.69-.52.96-1.97,1.96-3.95,3.9-5.88,5.9-.54.56-1.07,1.14-1.68,1.63-.52.41-1.09.71-1.75.83-.43.08-.86.09-1.29.09-2.27.01-4.55,0-6.82.01-.68,0-1.37.01-2.05.01-.38,0-.7.14-.97.41-.72.74-1.46,1.46-2.19,2.19-.14.14-.26.29-.34.47-.21.43.1,1.2.74,1.15.3-.03.53-.12.73-.32.66-.67,1.33-1.32,1.98-1.99.16-.16.33-.22.55-.22,2.78,0,5.55,0,8.33.01.57,0,1.15,0,1.71-.13,1.12-.24,2.12-.74,2.92-1.59.7-.73,1.42-1.44,2.14-2.16,1.69-1.69,3.37-3.38,5.06-5.06.47-.47.88-.96.98-1.65.09-.6.13-1.2-.18-1.75-.4-.72-.96-1.24-1.81-1.45-.93-.24-1.73-.04-2.46.53-.28.22-.53.45-.77.71-.84.9-1.73,1.75-2.59,2.62-.28.29-.55.59-.86.91Z"/>
  <path class="cls-1" d="m79.43,5.53c.03.14-.02.29-.05.44-.15.62-.31,1.24-.46,1.86-.05.22-.1.44-.14.66-.07.37-.06.37-.45.37-3.52,0-7.03,0-10.55,0-.43,0-.86.03-1.28.15-.88.25-1.44.8-1.65,1.7-.07.29-.15.56-.15.86,0,.86.58,1.5,1.5,1.5,2.5-.01,5,0,7.49,0,.53,0,1.05.09,1.57.21.73.17,1.29.61,1.85,1.06.51.41.76.97.98,1.56.32.84.29,1.71.07,2.56-.1.39-.22.78-.31,1.17-.04.17-.18.27-.24.42-.28.66-.73,1.19-1.2,1.71-.32.35-.66.7-1.06.97-.29.2-.62.33-.93.5-1.05.59-2.16.82-3.36.81-4-.02-8.01,0-12.01,0q-.5,0-.38-.5c.2-.83.39-1.67.59-2.5.08-.35.08-.35.43-.35.81,0,1.62,0,2.43,0,3.34,0,6.67,0,10.01,0,.62,0,1.19-.14,1.68-.51.83-.64,1.11-1.53,1.03-2.55-.05-.57-.75-1.07-1.32-1.13-.22-.02-.45-.02-.67-.02-2.07,0-4.13-.01-6.2,0-.6,0-1.19-.07-1.79-.02-.25.02-.53-.09-.77-.19-.43-.16-.88-.28-1.24-.58-.54-.44-.95-.97-1.25-1.61-.42-.89-.39-1.81-.23-2.74.16-.93.41-1.84.98-2.63.43-.58.91-1.1,1.48-1.57.67-.55,1.42-.95,2.22-1.25.76-.29,1.58-.4,2.4-.4,3.59,0,7.17,0,10.76,0,.08,0,.17-.03.25.04Z"/>
  <path class="cls-1" d="m168.2,5.49c.02.46-.12.86-.24,1.25-.07.25-.17.48-.16.74,0,.21-.16.39-.18.59-.04.6-.24,1.16-.37,1.74-.2.89-.37,1.79-.61,2.67-.15.55-.25,1.11-.37,1.67-.5,2.18-1,4.37-1.51,6.55-.18.76-.38,1.51-.53,2.28-.05.25-.14.5-.17.76-.02.17-.08.3-.32.29-.98-.02-1.95,0-2.93,0-.06,0-.11,0-.18-.08.19-.81.42-1.64.59-2.48.17-.83.38-1.65.55-2.48.17-.82.38-1.64.57-2.44-.16-.11-.3-.07-.43-.07-3.66,0-7.31,0-10.97,0-.35,0-.32.01-.44.34-.18.46-.29.96-.36,1.43-.08.55-.28,1.07-.37,1.62-.1.63-.27,1.26-.43,1.89-.1.39-.17.79-.25,1.18-.06.29-.2.57-.2.88,0,.16-.1.23-.28.23-.96,0-1.93,0-2.89,0-.24,0-.29-.07-.21-.31.1-.29.16-.58.23-.88.27-1.23.56-2.45.85-3.68.35-1.48.69-2.96,1.03-4.43.39-1.67.75-3.34,1.13-5.01.25-1.11.53-2.21.79-3.32.05-.23.1-.46.14-.7.02-.13.09-.2.22-.2,1.03.02,2.06-.03,3.09.02.01,0,.02.02.05.04-.16,1.27-.57,2.5-.83,3.75-.27,1.24-.48,2.5-.94,3.7.16.08.3.06.44.06,3.7,0,7.39,0,11.09,0,.34,0,.35,0,.42-.32.29-1.3.58-2.6.88-3.89.25-1.06.49-2.13.73-3.19.02-.11.06-.18.18-.18,1.06,0,2.12,0,3.19,0Z"/>
  <path class="cls-1" d="m91.16,14.86c-.04.5-.17.99-.28,1.49-.09.44-.21.87-.31,1.3-.07.32-.07.32-.41.32-1.77,0-3.54,0-5.32,0-.28,0-.56.02-.83.09-.76.19-1.36.92-1.38,1.7-.02.52.36.96.9,1.05.14.02.28.02.42.02,1.86,0,3.71,0,5.57,0,.35,0,.69-.05,1.02-.2.53-.23.87-.63,1.03-1.19.18-.6.31-1.21.45-1.83.2-.86.4-1.71.59-2.57.05-.22.07-.44.09-.66.03-.57-.31-1-.87-1.1-.23-.05-.47-.06-.71-.06-2.14,0-4.27,0-6.41,0-.08,0-.17,0-.25,0-.2,0-.3-.1-.23-.28.32-.87.46-1.77.65-2.67.03-.12.1-.2.23-.21.1,0,.2,0,.29,0,2.21,0,4.41,0,6.62,0,.8,0,1.55.18,2.24.56.81.44,1.34,1.1,1.6,2,.27.95.06,1.85-.14,2.75-.25,1.17-.52,2.34-.82,3.49-.15.59-.29,1.21-.57,1.75-.32.6-.67,1.17-1.18,1.66-.41.39-.84.71-1.31,1.01-.76.47-1.59.69-2.48.73-.24.01-.47.02-.71.02-1.67,0-3.35,0-5.02,0-.56,0-1.13,0-1.69-.11-.72-.14-1.3-.52-1.78-1.09-.85-.99-.98-2.11-.69-3.32.47-1.94,1.59-3.34,3.4-4.19.72-.34,1.5-.49,2.29-.5,1.93-.03,3.85,0,5.78,0,.07,0,.14,0,.22.06Z"/>
  <path class="cls-1" d="m137.49,10.05c.93,0,1.87-.01,2.8,0,.54,0,1.09-.04,1.6.21.98.03,1.57.68,2.06,1.4.44.65.59,1.44.52,2.24-.09,1.02-.35,2-.59,2.99-.16.67-.31,1.36-.46,2.03-.12.51-.27,1.01-.46,1.51-.14.38-.41.68-.63,1.01-.48.72-1.14,1.26-1.86,1.73-.79.52-1.67.82-2.62.83-1.51.02-3.01.02-4.52.02-.88,0-1.76.05-2.63-.07-.79-.1-1.49-.39-2.06-1.01-.4-.45-.68-.95-.85-1.5-.18-.57-.12-1.19,0-1.78.3-1.35.61-2.69.92-4.03.08-.34.12-.69.24-1.03.39-1.14.9-2.2,1.85-3.01.87-.73,1.85-1.18,2.94-1.43.4-.09.8-.1,1.21-.11.85-.01,1.7,0,2.55,0h0Zm-.52,3.4h0c-.99,0-1.98-.01-2.97,0-.94.01-1.41.37-1.7,1.26-.1.31-.17.64-.24.96-.25,1.09-.51,2.17-.76,3.26-.05.23-.11.46-.11.7,0,.54.19.8.7.94.22.06.44.09.66.09,1.83,0,3.66,0,5.48,0,.21,0,.41-.04.62-.08.61-.11.99-.48,1.19-1.05.12-.34.22-.69.3-1.04.22-.91.43-1.82.63-2.73.11-.48.24-.95.23-1.44,0-.48-.18-.7-.66-.83-.21-.05-.41-.06-.62-.06-.92,0-1.84,0-2.76,0Z"/>
  <path class="cls-1" d="m174.99,24.02c-.93,0-1.87,0-2.8,0-.62,0-1.22-.07-1.82-.26-1.31-.4-2.28-1.81-2.27-3.05,0-.55.09-1.08.21-1.61.32-1.4.65-2.8.99-4.19.12-.5.26-.99.47-1.46.34-.77.88-1.38,1.51-1.92.84-.73,1.83-1.15,2.91-1.38.36-.08.75-.09,1.12-.09,1.86,0,3.71-.01,5.57,0,.67,0,1.33.05,1.97.3.16.06.31.13.45.22,1.02.67,1.49,1.64,1.58,2.83.05.65-.07,1.27-.2,1.89-.28,1.28-.6,2.55-.88,3.82-.26,1.17-.81,2.21-1.65,3.05-1.07,1.07-2.37,1.74-3.9,1.81-1.07.05-2.15,0-3.22,0,0,0,0,.01,0,.02Zm2.37-10.57h0c-.96,0-1.92,0-2.89,0-.3,0-.6.05-.88.16-.56.22-.81.69-.95,1.23-.26,1.04-.49,2.09-.72,3.13-.11.52-.27,1.02-.33,1.55-.06.6.19.94.77,1.07.23.05.47.07.7.07,1.74,0,3.49,0,5.23,0,1.26,0,1.82-.42,2.11-1.64.33-1.35.63-2.71.95-4.07.05-.22.06-.44.05-.66-.03-.46-.21-.7-.56-.76-.31-.05-.62-.1-.95-.1-.85.01-1.7,0-2.55,0Z"/>
  <path class="cls-1" d="m190.06,24.02c-1.46,0-2.93,0-4.39,0-.08,0-.17,0-.25,0-.22-.01-.28-.08-.21-.28.06-.17.12-.34.16-.52.14-.79.42-1.55.5-2.36.01-.13.1-.16.2-.17.12-.02.25-.01.38-.01,2.71,0,5.41,0,8.12,0,.29,0,.58-.03.87-.09.95-.19,1.34-1.12,1.28-1.77-.04-.44-.26-.68-.68-.79-.23-.06-.47-.05-.71-.05-1.33,0-2.65,0-3.98,0-.54,0-1.09,0-1.63-.09-1.06-.17-1.85-.71-2.28-1.72-.29-.68-.25-1.38-.11-2.08.24-1.19.89-2.11,1.82-2.86.57-.46,1.22-.76,1.94-.97.67-.2,1.34-.2,2.02-.2,2.33,0,4.66,0,6.99,0,.07,0,.14,0,.21,0,.16,0,.22.06.19.23-.18.81-.36,1.62-.54,2.43-.02.1-.04.19-.07.28-.13.46-.13.45-.61.45-2.48,0-4.97,0-7.45,0-.17,0-.34,0-.5.02-.17.01-.33.08-.45.2-.17.17-.26.52-.17.7.12.24.35.26.57.26,1.53,0,3.07,0,4.6,0,.49,0,.97,0,1.46.09.56.09,1.05.3,1.52.63.85.6,1.17,1.45,1.28,2.42.08.77-.03,1.53-.29,2.27-.8,2.32-3.19,4.03-5.71,4-1.35-.02-2.71,0-4.06,0Z"/>
  <path class="cls-1" d="m101.14,24.02c-1.47,0-2.93,0-4.4,0-.1,0-.2,0-.29,0-.17,0-.23-.08-.17-.23.3-.87.45-1.77.66-2.66.11-.46.1-.46.55-.46,2.04,0,4.07,0,6.11,0,.71,0,1.42,0,2.14,0,.25,0,.5-.04.75-.08.94-.16,1.39-1.1,1.31-1.82-.04-.42-.25-.61-.69-.71-.32-.08-.63-.08-.95-.08-1.31,0-2.62,0-3.94,0-.49,0-.98-.02-1.46-.09-1.36-.19-2.38-1.25-2.44-2.61-.08-1.88.78-3.29,2.29-4.34.9-.62,1.91-.89,2.99-.89,2.54,0,5.08,0,7.62,0,.07,0,.14,0,.21,0,.11,0,.14.08.12.17-.07.34-.13.68-.2,1.01-.14.63-.29,1.25-.43,1.87-.08.34-.08.34-.44.34-.56,0-1.12,0-1.67,0-1.98,0-3.96,0-5.95,0-.19,0-.39-.02-.58.04-.23.07-.44.18-.5.44-.11.5.06.69.6.69,1.56,0,3.13.01,4.69,0,.63,0,1.27.01,1.85.21.89.3,1.62.82,1.99,1.76.38.95.42,1.91.16,2.89-.11.41-.19.83-.41,1.2-.31.52-.65,1.04-1.08,1.46-.58.57-1.25,1.04-2.01,1.39-.86.39-1.75.5-2.67.5-1.26,0-2.51,0-3.77,0Z"/>
  <path class="cls-1" d="m204.54,23.97c.03-.34.17-.65.24-.97.68-2.97,1.37-5.95,2.06-8.92.15-.64.14-.64-.51-.63-1.06,0-2.12,0-3.18,0-.1,0-.2,0-.29,0-.19,0-.25-.06-.2-.25.11-.42.2-.84.3-1.26.11-.49.22-.98.33-1.47.09-.37.14-.42.53-.42,1.2,0,2.4,0,3.6,0,.33,0,.33,0,.4-.33.28-1.22.57-2.45.84-3.67.12-.55.12-.55.67-.55.85,0,1.7,0,2.55,0,.07,0,.14,0,.26.01-.34,1.51-.64,3-1.07,4.46,0,0,0,.02.01.03,0,0,.02.02.04.02.05.01.11.03.16.03,1.85,0,3.71,0,5.56,0,.09.29.01.55-.04.82-.15.73-.32,1.47-.49,2.2-.09.39-.1.39-.49.39-1.7,0-3.41,0-5.11,0-.35,0-.37.01-.45.38-.39,1.73-.8,3.46-1.21,5.19-.37,1.59-.74,3.18-1.1,4.77-.04.17-.07.24-.25.24-1.02,0-2.04,0-3.06,0-.04,0-.08-.02-.13-.04Z"/>
  <path class="cls-1" d="m115.65,23.98c.39-1.68.77-3.34,1.15-4.99.35-1.49.7-2.98,1.04-4.47.06-.26.11-.51.18-.77.07-.28.05-.31-.25-.31-1.07,0-2.15,0-3.22,0-.21,0-.42,0-.63,0-.18,0-.21-.08-.17-.24.26-.98.5-1.97.68-2.96.04-.23.19-.2.34-.2.77,0,1.53,0,2.3,0,.5,0,1,0,1.51.01.21,0,.31-.07.35-.26.24-1.21.58-2.39.79-3.61.12-.69.13-.69.84-.7.81,0,1.62,0,2.43,0,.08,0,.17-.01.26.07-.26,1.49-.68,2.95-1.02,4.44.16.08.33.05.5.05,1.6,0,3.21,0,4.81,0,.06,0,.11,0,.17,0,.42,0,.39.02.3.4-.21.9-.39,1.8-.59,2.69-.07.3-.07.31-.38.31-1.7,0-3.4,0-5.11,0-.1,0-.2,0-.29,0-.14,0-.22.07-.25.22-.22,1.2-.54,2.38-.8,3.58-.39,1.77-.82,3.53-1.21,5.3-.09.41-.19.81-.28,1.22-.04.16-.1.27-.3.26-1.02-.01-2.04,0-3.06-.01-.03,0-.05-.02-.09-.03Z"/>
  <path class="cls-1" d="m86.09,32.55c7.55,0,15.1,0,22.65,0,.51,0,.45-.09.47.47.02.37.01.37-.36.38-.07,0-.14,0-.21,0-15.07,0-30.14,0-45.21,0-.6,0-.56.11-.55-.56,0-.29,0-.29.31-.29.38,0,.75,0,1.13,0,7.26,0,14.51,0,21.77,0h0Z"/>
  <path class="cls-1" d="m189.46,33.4c-7.55,0-15.09,0-22.64,0-.53,0-.48.07-.47-.5,0-.39,0-.35.38-.35,11.47,0,22.94,0,34.4,0,3.7,0,7.39,0,11.09,0,.07,0,.14,0,.21,0,.15-.01.22.03.23.21.04.65.05.65-.59.65-7.53,0-15.07,0-22.6,0Z"/>
  <path class="cls-1" d="m162.75,31.34c.04-.08.06-.11.08-.14.12-.27.25-.38.44-.36.18.02.36.26.41.47.09.4.07.8.07,1.2,0,.71,0,1.42,0,2.13,0,.32-.07.62-.18.93-.22.61-.69.89-1.26,1.04-.66.17-1.31.11-1.94-.17-.3-.14-.35-.23-.31-.51.04-.23.24-.39.47-.34.23.05.45.11.67.18.29.09.58.1.86.01.52-.16.76-.53.72-1.09-.17,0-.27.12-.39.19-.7.44-1.42.35-2.05-.07-.41-.27-.7-.72-.78-1.26-.05-.36-.07-.72,0-1.08.14-.66.5-1.2,1.11-1.47.46-.2.99-.33,1.49.02.17.12.38.15.58.31Zm.04,1.65c-.02-.14-.05-.32-.08-.5-.1-.69-1.25-1-1.72-.62-.52.43-.7.94-.37,1.8.17.45.55.64,1.02.66.49.02.81-.22,1.01-.65.09-.21.11-.43.13-.69Z"/>
  <path class="cls-1" d="m125.06,31.4c.29-.25.54-.41.82-.52.67-.25,1.57.19,1.91.7.48.71.58,1.47.27,2.3-.19.5-.46.89-.94,1.1-.61.27-1.22.3-1.79-.14-.17-.13-.27-.13-.37.1-.1.22-.48.3-.7.18-.09-.05-.17-.14-.17-.26.06-1.65,0-3.31.03-4.96,0-.18,0-.36.19-.48.27-.18.53-.12.68.17.07.14.07.3.07.45,0,.43,0,.85,0,1.36Zm1.06.29c-.13.02-.32-.03-.45.08-.25.22-.49.44-.56.8-.06.33-.04.63.03.95.18.75,1.15,1.08,1.71.56.43-.4.49-.91.39-1.46-.11-.57-.53-.94-1.13-.93Z"/>
  <path class="cls-1" d="m115.58,33.31c.26-.24.25-.55.37-.82.18-.4.33-.81.51-1.2.14-.31.34-.41.59-.33.22.07.39.43.3.69-.26.74-.54,1.48-.82,2.22-.1.27-.2.53-.3.8-.12.32-.23.39-.56.4-.2,0-.33-.06-.42-.26-.17-.4-.24-.82-.4-1.22-.08-.22-.15-.44-.25-.74-.24.53-.37,1.02-.52,1.5-.05.15-.08.3-.15.43-.19.34-.52.39-.78.1-.24-.27-.36-.61-.47-.94-.1-.28-.14-.57-.31-.83-.21-.32-.23-.72-.35-1.08-.05-.15-.12-.31-.17-.47-.11-.38.07-.64.41-.64.21,0,.32.14.4.29.26.47.41.99.59,1.49.05.13.1.26.15.39.02.07.05.14.14.13.07,0,.11-.05.14-.13.1-.31.23-.61.33-.92.07-.2.16-.37.31-.51.19-.18.36-.19.56-.02.17.14.23.34.29.53.12.38.31.72.41,1.12Z"/>
  <path class="cls-1" d="m133.54,31.46c.45-.5.94-.68,1.5-.63.57.05.97.46,1.09,1.05.08.41.08.83.08,1.25,0,.42,0,.84,0,1.25,0,.1,0,.2-.02.29-.06.26-.24.41-.47.4-.23,0-.43-.21-.43-.48-.01-.4-.02-.81,0-1.21.02-.43-.07-.85-.14-1.27-.04-.27-.39-.47-.72-.4-.16.03-.33.06-.47.12-.17.07-.28.2-.32.4-.07.4-.09.8-.08,1.21,0,.32-.02.64,0,.96.02.29-.14.47-.35.62-.22.15-.56-.01-.58-.28-.01-.15-.01-.31-.01-.46,0-1.39,0-2.79,0-4.18,0-.13,0-.25.02-.38.04-.29.19-.42.46-.42.22,0,.42.17.44.42.03.3.02.61.03.92,0,.25,0,.49,0,.83Z"/>
  <path class="cls-1" d="m120.92,33.31c-.36,0-.73,0-1.09,0-.21,0-.27.08-.19.28.1.24.28.42.5.54.42.22.85.26,1.29.06.17-.08.32-.15.51-.14.15,0,.29,0,.35.16.07.17.04.33-.09.46-.15.15-.33.26-.53.32-.65.2-1.3.26-1.94-.02-.3-.13-.5-.38-.69-.62-.45-.58-.47-1.23-.36-1.92.14-.86.94-1.53,1.78-1.6.74-.06,1.31.28,1.73.84.2.26.38.54.41.9.05.5-.11.71-.61.73-.36.01-.73,0-1.09,0h0Zm.67-.76c-.04-.46-.27-.69-.71-.79-.56-.14-.97.02-1.21.49-.14.27-.13.3.18.3.57,0,1.14,0,1.74,0Z"/>
  <path class="cls-1" d="m139.64,35.15c-1.14.05-2.03-1.11-1.95-2.32.09-1.36,1.13-2.04,2.24-2,1.24.04,2.07,1.02,2.05,2.33-.02,1.05-1.01,2.11-2.33,1.98Zm1.36-2.14c0-.1,0-.19-.01-.29-.06-.53-.43-.93-.96-1.01-.55-.08-.89.05-1.21.59-.26.43-.24.88-.04,1.32.35.75,1.24.93,1.85.37.28-.26.4-.59.38-.98Z"/>
  <path class="cls-1" d="m155.27,31.43c.18-.07.28-.19.4-.28.56-.39,1.11-.48,1.79-.11.34.19.42.58.49.93.17.84.09,1.69.08,2.54,0,.38-.18.55-.48.55-.27,0-.38-.09-.43-.37-.03-.15-.02-.3-.02-.46,0-.6.03-1.2-.04-1.8-.06-.47-.3-.74-.69-.75-.59-.03-.9.26-1,.69-.05.2-.07.41-.07.62,0,.46,0,.92,0,1.38,0,.15-.01.31-.09.45-.1.18-.3.28-.49.25-.19-.03-.29-.16-.32-.34-.02-.12-.04-.25-.04-.37,0-.93,0-1.87,0-2.8,0-.17,0-.32.15-.45.29-.28.45-.27.66.08.04.07.06.15.1.24Z"/>
  <path class="cls-1" d="m144.98,30.82c.4.06.81.19,1.16.48.18.15.25.39.17.51-.14.22-.36.28-.61.12-.21-.13-.43-.22-.67-.29-.13-.04-.27-.07-.41-.04-.16.03-.34.05-.37.27-.03.18-.02.37.17.48.13.08.25.17.4.21.28.07.54.18.82.26.36.1.82.61.81,1.02-.01.54-.28.94-.76,1.15-.34.15-.72.25-1.05.2-.52-.08-1.09-.17-1.42-.69-.08-.13-.09-.41,0-.51.09-.1.39-.14.55-.06.11.06.21.14.3.22.36.29.77.3,1.19.24.29-.04.41-.36.25-.62-.08-.14-.21-.25-.36-.27-.32-.05-.59-.23-.9-.31-.32-.08-.56-.31-.8-.52-.25-.22-.2-1.01.05-1.29.38-.44.89-.53,1.46-.57Z"/>
  <path class="cls-1" d="m149.27,35.08c-.61.03-.86-.37-.92-.9-.04-.43-.02-.86-.02-1.29,0-.24,0-.47,0-.71,0-.33,0-.33-.33-.37-.35-.04-.47-.18-.43-.52.03-.26.24-.28.42-.32.31-.07.31-.06.33-.37,0-.13.03-.25.1-.36.16-.27.5-.3.69-.05.12.16.17.34.16.55-.01.16.06.22.22.22.15,0,.3,0,.45.06.16.07.3.15.29.35,0,.14-.26.4-.4.42-.05,0-.11,0-.17,0-.42-.02-.4.03-.4.38,0,.56,0,1.11,0,1.67,0,.39.05.43.44.4.31-.03.4.02.46.22.07.24,0,.36-.26.49-.21.1-.43.12-.65.11Z"/>
  <path class="cls-1" d="m152.71,32.98c0,.46,0,.92,0,1.38,0,.14,0,.28-.06.41-.11.26-.22.32-.52.29-.21-.02-.31-.12-.34-.39-.02-.18-.01-.36-.01-.54,0-.79,0-1.59,0-2.38,0-.14,0-.28.03-.42.04-.23.21-.39.4-.4.2,0,.46.21.5.43.02.15.01.31.01.46,0,.39,0,.78,0,1.17h0Z"/>
  <path class="cls-1" d="m151.77,29.89c0-.34.11-.45.48-.45.36,0,.47.09.48.41,0,.34-.11.46-.47.47-.4,0-.48-.06-.48-.43Z"/>
  <path class="cls-1" d="m25.93,4.37c5.39-.06,9.41,4.3,9.41,9.37,0,5.4-4.42,9.42-9.52,9.39-2.6-.01-4.8-1.01-6.61-2.85-1.78-1.81-2.66-4.01-2.67-6.55-.02-5.26,4.38-9.5,9.39-9.36Zm-.01,11.35s0,0,0,0c.65,0,1.31,0,1.96,0,.37,0,.37,0,.43-.35.18-1.1.14-2.19,0-3.29-.04-.32-.05-.33-.39-.33-1.31,0-2.62-.01-3.93-.01-.07,0-.14,0-.21.01-.13,0-.2.06-.2.21-.01.35-.09.69-.11,1.04-.05.82,0,1.64.1,2.46.03.22.1.27.3.27.68,0,1.36,0,2.05,0Zm-5.76,0h0c.47,0,.95,0,1.42,0,.26,0,.28-.03.25-.3-.03-.33-.08-.66-.1-1-.04-.81-.01-1.62.09-2.42.02-.13.04-.26-.16-.25-.98,0-1.95,0-2.93,0-.17,0-.23.08-.27.25-.21.9-.24,1.81-.11,2.72.04.26,0,.52.1.78.07.19.15.23.32.23.46,0,.92,0,1.38,0Zm9.87-.06c.13.09.26.05.38.05.71,0,1.42,0,2.13,0,.25,0,.55.09.74-.04.21-.15.13-.49.19-.74.25-.97.09-1.93-.06-2.89-.03-.21-.11-.31-.34-.31-.92.01-1.84,0-2.76,0-.27,0-.28.02-.24.3.12.96.16,1.92.05,2.88-.03.25-.06.49-.09.74Zm-5.97-9.34c-1.61.34-2.83,1.15-3.85,2.29-.37.41-.75.82-.96,1.35.13.1.25.06.35.06.67,0,1.34,0,2.01,0q.64,0,.81-.62s.05-.07.07-.1c.18-.52.42-1.01.67-1.5.25-.49.48-.99.89-1.47Zm3.89,0c-.02.14.04.21.09.28.67.98,1.12,2.06,1.49,3.18.06.19.19.24.38.24.81,0,1.61,0,2.42,0,.08,0,.19.06.26-.07-1.04-1.83-2.59-3.01-4.64-3.62Zm-4.04,14.72s0-.06,0-.08c-.02-.05-.05-.1-.08-.15-.62-1-1.18-2.03-1.49-3.17-.04-.15-.12-.21-.26-.21-.92,0-1.83,0-2.76,0,0,.07,0,.12.02.15.55.88,1.21,1.67,2.06,2.28.62.45,1.26.84,1.98,1.09.19.07.35.15.55.09Zm8.66-3.58c-.94-.05-1.87-.04-2.8-.02-.09,0-.14.06-.17.15-.13.34-.27.68-.4,1.03-.29.79-.68,1.53-1.15,2.22-.04.07-.14.11-.09.21,1.43-.11,3.89-1.84,4.61-3.59Zm-8.51-7.46h3.75c-.46-1.22-1.04-2.31-1.84-3.3-.94.95-1.4,2.12-1.91,3.3Zm0,7.44c.15.3.22.56.33.79.39.83.82,1.64,1.4,2.36.16.2.16.21.31,0,.45-.6.84-1.25,1.17-1.92.19-.38.34-.78.53-1.22-1.25-.04-2.46-.03-3.74-.01Z"/>
  <path class="cls-1" d="m30.64,26.32c.3-.33.58-.63.86-.91.86-.88,1.75-1.72,2.59-2.62.24-.26.49-.49.77-.71.73-.57,1.53-.78,2.46-.53.84.22,1.41.73,1.81,1.45.31.55.26,1.16.18,1.75-.1.68-.51,1.18-.98,1.65-1.7,1.68-3.38,3.37-5.06,5.06-.72.72-1.44,1.43-2.14,2.16-.81.85-1.8,1.35-2.92,1.59-.56.12-1.13.13-1.71.13-2.78,0-5.55,0-8.33-.01-.22,0-.39.06-.55.22-.65.67-1.32,1.32-1.98,1.99-.21.21-.43.3-.73.32-.63.05-.94-.72-.74-1.15.09-.18.2-.33.34-.47.73-.73,1.47-1.45,2.19-2.19.27-.28.59-.41.97-.41.68,0,1.37-.01,2.05-.01,2.27,0,4.55,0,6.82-.01.43,0,.86-.01,1.29-.09.66-.12,1.23-.42,1.75-.83.61-.49,1.14-1.06,1.68-1.63,1.93-2,3.91-3.94,5.88-5.9.27-.27.54-.52.52-.96-.03-.5-.32-.81-.82-.94-.45-.11-.77.05-1.07.34-.46.45-.92.9-1.37,1.36-1.46,1.46-2.91,2.93-4.36,4.4-.51.52-1.12.81-1.84.85-.45.03-.89.01-1.34.01-1.45,0-2.9,0-4.35.01-.41,0-.71-.12-.92-.51-.22-.41.06-1.15.66-1.19.11,0,.22,0,.33,0,1.63,0,3.27,0,4.9,0,.32,0,.64,0,.94-.13.71-.29.89-1.13.36-1.68-.19-.19-.44-.21-.67-.28-.17-.05-.36-.04-.54-.04-2.9,0-5.8,0-8.71,0-.53,0-1.05.08-1.56.18-.41.08-.77.31-1.1.57-.59.45-1.08,1.01-1.61,1.53-.14.14-.27.26-.48.32-.55.17-1.03-.14-1.1-.71-.04-.34.11-.59.33-.81.48-.47.95-.95,1.44-1.4.6-.56,1.3-.96,2.09-1.18.43-.12.87-.18,1.32-.18,3.25,0,6.5,0,9.75,0,.82,0,1.54.25,2.13.85.21.21.31.49.57.78Z"/>
  <path class="cls-3" d="m136.97,13.45c.92,0,1.84,0,2.76,0,.21,0,.42,0,.62.06.48.12.65.34.66.83,0,.49-.13.97-.23,1.44-.2.91-.42,1.82-.63,2.73-.08.35-.18.7-.3,1.04-.2.56-.58.94-1.19,1.05-.21.04-.41.08-.62.08-1.83,0-3.66,0-5.48,0-.22,0-.44-.03-.66-.09-.51-.14-.71-.4-.7-.94,0-.24.06-.47.11-.7.25-1.09.5-2.17.76-3.26.08-.32.14-.65.24-.96.29-.89.76-1.24,1.7-1.26.99-.01,1.98,0,2.97,0h0Z"/>
  <path class="cls-3" d="m177.36,13.45c.85,0,1.7,0,2.55,0,.32,0,.63.05.95.1.35.05.53.3.56.76.01.22,0,.44-.05.66-.32,1.36-.62,2.71-.95,4.07-.3,1.21-.85,1.64-2.11,1.64-1.74,0-3.49,0-5.23,0-.24,0-.47-.02-.7-.07-.58-.13-.84-.47-.77-1.07.06-.53.21-1.04.33-1.55.23-1.05.46-2.09.72-3.13.13-.53.39-1.01.95-1.23.28-.11.58-.16.88-.16.96,0,1.92,0,2.89,0h0Z"/>
  <path class="cls-3" d="m162.78,32.98c-.02.26-.03.48-.13.69-.2.43-.52.67-1.01.65-.47-.02-.85-.21-1.02-.66-.33-.87-.16-1.37.37-1.8.47-.38,1.62-.07,1.72.62.03.18.05.36.08.5Z"/>
  <path class="cls-3" d="m126.12,31.69c.6-.01,1.03.35,1.13.93.1.55.03,1.06-.39,1.46-.56.52-1.54.19-1.71-.56-.08-.32-.09-.62-.03-.95.07-.36.31-.59.56-.8.12-.11.32-.06.45-.08Z"/>
  <path class="cls-3" d="m121.59,32.54c-.6,0-1.17,0-1.74,0-.31,0-.32-.03-.18-.3.25-.48.65-.63,1.21-.49.44.11.67.34.71.79Z"/>
  <path class="cls-3" d="m141,33.02c.03.38-.09.72-.38.98-.61.56-1.5.38-1.85-.37-.2-.44-.22-.89.04-1.32.32-.54.67-.67,1.21-.59.52.08.89.49.96,1.01.01.1,0,.19.01.29Z"/>
  <path class="cls-2" d="m25.92,15.72c-.68,0-1.36,0-2.05,0-.2,0-.27-.05-.3-.27-.1-.82-.14-1.63-.1-2.46.02-.35.1-.69.11-1.04,0-.14.07-.2.2-.21.07,0,.14-.01.21-.01,1.31,0,2.62,0,3.93.01.34,0,.35.01.39.33.14,1.1.18,2.19,0,3.29-.06.34-.06.35-.43.35-.65,0-1.31,0-1.96,0,0,0,0,0,0,0Z"/>
  <path class="cls-2" d="m20.16,15.72c-.46,0-.92,0-1.38,0-.17,0-.25-.04-.32-.23-.09-.26-.06-.52-.1-.78-.13-.91-.1-1.82.11-2.72.04-.17.1-.25.27-.25.98,0,1.95,0,2.93,0,.2,0,.17.12.16.25-.1.8-.13,1.61-.09,2.42.02.33.07.67.1,1,.03.27.01.3-.25.3-.47,0-.95,0-1.42,0h0Z"/>
  <path class="cls-2" d="m30.03,15.67c.03-.24.06-.49.09-.74.1-.96.07-1.92-.05-2.88-.04-.28-.03-.3.24-.3.92,0,1.84,0,2.76,0,.23,0,.31.1.34.31.15.96.31,1.91.06,2.89-.06.25.02.58-.19.74-.19.13-.49.04-.74.04-.71,0-1.42,0-2.13,0-.12,0-.25.03-.38-.05Z"/>
  <path class="cls-2" d="m24.05,6.33c-.41.49-.64.99-.89,1.47-.25.49-.49.98-.67,1.5-.01.04-.05.07-.07.1q-.17.62-.81.62c-.67,0-1.34,0-2.01,0-.11,0-.22.04-.35-.06.21-.52.59-.94.96-1.35,1.01-1.14,2.24-1.95,3.85-2.29Z"/>
  <path class="cls-2" d="m27.94,6.33c2.05.61,3.6,1.78,4.64,3.62-.07.13-.18.07-.26.07-.81,0-1.61,0-2.42,0-.19,0-.31-.04-.38-.24-.37-1.12-.82-2.2-1.49-3.18-.05-.07-.11-.13-.09-.28Z"/>
  <path class="cls-2" d="m23.9,21.05c-.2.06-.36-.02-.55-.09-.72-.25-1.36-.64-1.98-1.09-.85-.62-1.51-1.4-2.06-2.28-.02-.03-.01-.08-.02-.15.93,0,1.85,0,2.76,0,.14,0,.22.06.26.21.31,1.14.88,2.17,1.49,3.17.03.05.06.1.08.15,0,.02,0,.05,0,.08Z"/>
  <path class="cls-2" d="m32.56,17.47c-.72,1.75-3.18,3.48-4.61,3.59-.05-.1.04-.15.09-.21.47-.69.86-1.43,1.15-2.22.13-.34.27-.68.4-1.03.03-.09.08-.14.17-.15.93-.02,1.86-.03,2.8.02Z"/>
  <path class="cls-2" d="m24.05,10.01c.51-1.18.97-2.36,1.91-3.3.8.99,1.39,2.09,1.84,3.3h-3.75Z"/>
  <path class="cls-2" d="m24.06,17.44c1.28-.02,2.48-.03,3.74.01-.19.44-.34.84-.53,1.22-.33.68-.72,1.32-1.17,1.92-.16.21-.16.2-.31,0-.58-.72-1-1.53-1.4-2.36-.11-.23-.18-.49-.33-.79Z"/>
</svg>